<?xml version="1.0" standalone="no"?>
<!DOCTYPE svg PUBLIC "-//W3C//DTD SVG 20010904//EN"
 "http://www.w3.org/TR/2001/REC-SVG-20010904/DTD/svg10.dtd">
<svg version="1.0" xmlns="http://www.w3.org/2000/svg"
 width="400.000000pt" height="400.000000pt" viewBox="0 0 400.000000 400.000000"
 preserveAspectRatio="xMidYMid meet">

<g transform="translate(0.000000,400.000000) scale(0.100000,-0.100000)"
fill="#dd1655" stroke="none">
<path d="M0 2000 l0 -2000 2000 0 2000 0 0 2000 0 2000 -2000 0 -2000 0 0
-2000z m2860 176 l0 -105 51 35 c61 41 110 47 185 23 68 -21 133 -116 134
-195 0 -64 -45 -143 -103 -178 -83 -51 -198 -35 -264 36 -46 49 -53 85 -53
286 0 104 3 192 7 195 3 4 15 7 25 7 16 0 18 -10 18 -104z m-2040 -182 c3 -93
10 -157 18 -171 30 -53 97 -58 136 -12 24 28 26 38 26 125 0 75 3 96 15 100
34 13 45 -15 45 -113 0 -86 2 -96 25 -118 27 -27 79 -33 106 -12 33 25 39 55
39 195 0 112 3 142 15 152 12 10 18 10 30 0 12 -10 15 -39 15 -144 0 -156 -9
-194 -55 -235 -47 -41 -91 -48 -148 -23 -24 11 -48 25 -51 31 -5 8 -17 4 -37
-13 -45 -38 -90 -43 -146 -15 -74 37 -83 64 -83 240 0 143 7 175 35 166 6 -2
12 -63 15 -153z m777 141 c82 -24 161 -127 151 -197 -3 -23 -5 -23 -180 -26
-169 -2 -178 -3 -178 -22 0 -26 53 -85 90 -100 41 -17 115 -7 152 20 33 24 58
21 58 -9 0 -48 -114 -88 -198 -71 -213 46 -216 349 -4 406 60 16 51 16 109 -1z
m242 -3 c5 -10 10 -63 10 -117 0 -55 0 -119 1 -143 0 -87 90 -125 144 -61 24
28 26 38 26 125 0 75 3 96 15 100 34 13 45 -15 45 -113 0 -86 2 -96 25 -118
33 -34 84 -34 119 1 26 26 26 28 26 174 0 119 3 150 15 160 12 10 18 10 30 0
21 -17 22 -275 1 -323 -17 -43 -68 -85 -110 -93 -35 -6 -116 22 -130 45 -5 8
-17 4 -37 -13 -45 -38 -90 -43 -146 -15 -74 37 -83 63 -83 246 0 148 2 159 32
162 4 1 12 -7 17 -17z m777 3 c84 -25 162 -126 152 -196 l-3 -24 -177 -3
c-167 -2 -178 -4 -178 -21 0 -25 44 -78 81 -96 50 -26 123 -15 181 27 14 10
20 10 33 -3 14 -14 14 -18 -5 -42 -32 -40 -118 -63 -185 -48 -212 48 -222 341
-13 406 56 18 56 18 114 0z"/>
<path d="M2952 2073 c-91 -45 -114 -162 -47 -241 33 -40 76 -56 131 -49 149
16 189 210 58 284 -46 27 -96 29 -142 6z"/>
<path d="M1474 2076 c-35 -15 -84 -74 -84 -99 0 -15 17 -17 150 -17 105 0 150
3 150 11 0 26 -45 81 -81 99 -44 23 -91 25 -135 6z"/>
<path d="M2490 2072 c-35 -17 -80 -73 -80 -98 0 -11 31 -14 150 -14 105 0 150
3 150 11 0 26 -45 81 -81 99 -47 25 -93 25 -139 2z"/>
</g>
</svg>
